<svg xmlns="http://www.w3.org/2000/svg" viewBox="0 0 585.44 164.79"><defs><clipPath id="clip-path" transform="translate(0 -1.17)"><path class="cls-1" d="M0 0h585.44v165.96H0z"/></clipPath><clipPath id="clip-path-3" transform="translate(0 -1.17)"><path class="cls-1" d="M375.89.13h156.42v163.35H375.89z"/></clipPath><style>.cls-1{fill:none}.cls-2{clip-path:url(#clip-path)}.cls-3{fill:#33475b}</style></defs><g id="Layer_2" data-name="Layer 2"><g class="cls-2" id="Outlines_-_Full_Color" data-name="Outlines - Full Color"><path class="cls-3" d="M63.4 26.3v46.81H20.41V26.3H0v111.74h20.41V92.75H63.4v45.29h20.41V26.3H63.4z"/><g class="cls-2"><path class="cls-3" d="M149.13 103.09a16.88 16.88 0 01-33.77 0V55.23H96v47.86a36.21 36.21 0 0072.42 0V55.23h-19.29zM292.57 60.16c0-9.81 6.49-12.92 13.6-12.92 5.73 0 13.3 4.36 18.25 9.65l12.68-14.94c-6.33-8.56-19.17-14.48-29.68-14.48-21 0-36.19 12.3-36.19 32.69 0 37.83 46.24 25.83 46.24 47 0 6.53-6.34 12.3-13.6 12.3-11.45 0-15.16-5.6-20.42-11.52l-14.07 14.63c9 11.05 20.1 16.66 33.4 16.66 19.95 0 36-12.45 36-31.91 0-42-46.24-28.95-46.24-47.16M578.63 121.36c-11.44 0-14.69-4.95-14.69-12.53V75.28h17.78v-17h-17.78V35.85l-19.63 8.81V113c0 17.48 12.06 26.29 28.6 26.29a39.62 39.62 0 007.74-.62l4.79-17.63c-2.16.15-4.64.3-6.81.3M222.82 55.79c-9.59 0-16.28 2.78-22.75 9.13V28.14h-19.39v68.17c0 25.52 18.45 43 39.18 43 23 0 43.23-17.79 43.23-41.75 0-23.66-18.62-41.76-40.27-41.76m-.12 64a22 22 0 1122-22 22 22 0 01-22 22M433.36 96.54c0-24-20.19-41.75-43.23-41.75-20.73 0-39.18 17.48-39.18 43V166h19.39v-36.83c6.46 6.34 13.16 9.13 22.74 9.13 21.65 0 40.27-18.09 40.27-41.76M415 96.3a22 22 0 11-22-22 22 22 0 0122 22" transform="translate(0 -1.17)"/></g><g clip-path="url(#clip-path-3)"><path d="M495.81 54.48V35.2a14.84 14.84 0 008.56-13.38v-.45a14.87 14.87 0 00-14.83-14.83h-.45a14.87 14.87 0 00-14.83 14.83v.45a14.84 14.84 0 008.56 13.38v19.28a42.06 42.06 0 00-20 8.8l-52.94-41.19a16.55 16.55 0 00.6-4.17 16.73 16.73 0 10-16.75 16.71 16.55 16.55 0 008.27-2.25l52.05 40.52a42.18 42.18 0 00.65 47.56l-15.84 15.84a13.61 13.61 0 00-3.93-.64 13.75 13.75 0 1013.75 13.75 13.53 13.53 0 00-.64-3.93l15.67-15.67a42.25 42.25 0 1032.1-75.33m-6.49 63.42A21.68 21.68 0 11511 96.22a21.68 21.68 0 01-21.68 21.68" transform="translate(0 -1.17)" fill="#ff7a59"/></g></g></g></svg>
