<?xml version="1.0" encoding="utf-8"?>
<!-- Generator: Adobe Illustrator 22.0.0, SVG Export Plug-In . SVG Version: 6.00 Build 0)  -->
<svg version="1.1" xmlns="http://www.w3.org/2000/svg" xmlns:xlink="http://www.w3.org/1999/xlink" x="0px" y="0px"
	 viewBox="0 0 417.9 138.3" style="enable-background:new 0 0 417.9 138.3;" xml:space="preserve">
<style type="text/css">
	.st0{fill:#6A78D1;}
	.st1{fill:#00A4BD;}
	.st2{fill:#DFE3EB;}
	.st3{fill:#F2547D;}
	.st4{fill:#00BDA5;}
	.st5{fill:#FF8F59;}
	.st6{fill:#FFFFFF;}
</style>
<g id="BG">
</g>
<g id="Canvas_logo">
	<g id="S">
		<path class="st0" d="M417.6,108.9c-1.3-9.3-7.5-17.1-16.1-20.6l-3.8,8.6c5.3,2,9.3,6.6,10.4,12.1c0.2,1.1,0.4,2.2,0.4,3.3
			c0,9.1-7.4,16.5-16.5,16.5c-6,0-11.4-3.2-14.4-8.4l-4.3,9.8c4.8,5,11.6,7.9,18.6,7.9c14.3,0,25.9-11.6,25.9-25.9
			C417.9,111.3,417.8,110.2,417.6,108.9z"/>
		<path class="st0" d="M390.5,61.1c-10.5,0-19.8,6.2-23.9,15.9c-1.3,3.2-2,6.5-2,10c0,10.8,6.8,20.6,17,24.3l3.8-8.6
			c-6.7-2.2-11.3-8.5-11.3-15.7c0-3,0.8-5.9,2.3-8.3c2.9-4.9,8.2-8.2,14.2-8.2c6.2,0,11.8,3.4,14.7,8.9l4.4-9.9
			C404.7,64.2,397.7,61.1,390.5,61.1z"/>
	</g>
	<polygon id="A_1_" class="st1" points="361.1,134.6 335.1,73.7 331.4,64.9 331.2,64.6 330.9,64.6 329.9,64.6 322,64.6 321,64.6
		320.7,64.6 320.6,64.9 290.2,134.6 289.9,135.3 290.7,135.3 299.5,135.3 299.9,135.3 300,135 325.9,75.5 351.3,135 351.4,135.3
		351.7,135.3 360.6,135.3 361.4,135.3 	"/>
	<polygon id="V" class="st2" points="299.1,64.6 290.2,64.6 289.9,64.6 289.8,64.9 264.2,124.2 238.3,64.9 238.2,64.6 237.9,64.6
		229,64.6 228.2,64.6 228.5,65.3 258.9,135 259,135.3 259.4,135.3 260.1,135.3 268.3,135.3 269,135.3 269.4,135.3 269.5,135
		273.6,125.6 299.6,65.3 299.9,64.6 	"/>
	<path id="N" class="st3" d="M218.7,64.6h-8.2H210v0.5v49.1v8.5l-46.8-57.9l-0.2-0.2h-0.2h-4h-6.5h-1.6h-0.5v0.5v69.7v0.5h0.5h8.2
		h0.5v-0.5V74.6l48.9,60.6l0.2,0.2h0.2h1.9h8.2h0.5v-0.5v-0.6v-9.9V65.1v-0.5H218.7z M162.8,65.1l47.7,59L162.8,65.1L162.8,65.1z
		 M218.7,124.3v9.9v0.6h0v-0.6L218.7,124.3l0-59.2h0V124.3z"/>
	<polygon id="A" class="st4" points="140.7,134.6 114.2,73.7 110.4,64.9 110.2,64.6 109.9,64.6 109.1,64.6 101,64.6 100.2,64.6
		99.9,64.6 99.8,64.9 69.4,134.6 69.1,135.3 69.8,135.3 78.7,135.3 79.1,135.3 79.2,135 105.1,75.6 108.8,84.3 130.8,135 131,135.3
		131.3,135.3 140.2,135.3 141,135.3 	"/>
	<path id="C" class="st5" d="M37.9,71c7.6,0,14.7,2.9,20.1,8.2l0.5,0.5l0.3-0.7l3.4-7.9l0.1-0.3l-0.3-0.2
		c-6.8-5.7-15.2-8.7-24.2-8.7C17,61.8,0,78.8,0,99.7c0,20.9,17,37.9,37.9,37.9c8.8,0,17.1-2.9,23.9-8.5l0.3-0.2l-0.2-0.3l-3.4-7.9
		l-0.3-0.7l-0.5,0.5c-5.4,5.1-12.4,7.9-19.8,7.9c-15.8,0-28.7-12.9-28.7-28.7C9.2,83.9,22,71,37.9,71z M42.8,62.7
		c1.6,0.2,3.2,0.5,4.8,0.9c2.1,0.6,4.1,1.3,6,2.2c-1.9-0.9-4-1.6-6-2.2C46,63.2,44.4,62.9,42.8,62.7c-1.1-0.1-2.2-0.2-3.3-0.3
		C40.6,62.4,41.7,62.5,42.8,62.7z M45.9,136.2c1-0.2,2.1-0.5,3.1-0.8C47.9,135.7,46.9,136,45.9,136.2z M61.5,128.7
		c-1.7,1.4-3.4,2.6-5.3,3.6C58.1,131.3,59.8,130.1,61.5,128.7l-3.4-7.9L61.5,128.7z"/>
</g>
<g id="HubSpot_logo">
	<g>
		<polygon class="st6" points="148.7,26 136.8,26 136.8,38.6 131.1,38.6 131.1,7.6 136.8,7.6 136.8,20.6 148.7,20.6 148.7,7.6
			154.4,7.6 154.4,38.6 148.7,38.6 		"/>
		<path class="st6" d="M172.5,28.6c0,2.6-2.1,4.7-4.7,4.7c-2.6,0-4.7-2.1-4.7-4.7V15.3h-5.4v13.3c0,5.5,4.5,10,10,10
			c5.5,0,10-4.5,10-10V15.3h-5.4V28.6z"/>
		<path class="st6" d="M212.2,16.7c0-2.7,1.8-3.6,3.8-3.6c1.6,0,3.7,1.2,5.1,2.7l3.5-4.1c-1.8-2.4-5.3-4-8.2-4c-5.8,0-10,3.4-10,9.1
			c0,10.5,12.8,7.2,12.8,13c0,1.8-1.8,3.4-3.8,3.4c-3.2,0-4.2-1.6-5.7-3.2l-3.9,4.1c2.5,3.1,5.6,4.6,9.3,4.6c5.5,0,10-3.5,10-8.8
			C225,18.1,212.2,21.7,212.2,16.7z"/>
		<path class="st6" d="M291.5,33.6c-3.2,0-4.1-1.4-4.1-3.5v-9.3h4.9v-4.7h-4.9V9.9l-5.4,2.4v18.9c0,4.8,3.3,7.3,7.9,7.3
			c0.7,0,1.6,0,2.1-0.2l1.3-4.9C292.8,33.6,292.1,33.6,291.5,33.6z"/>
		<path class="st6" d="M192.9,15.5c-2.7,0-4.5,0.8-6.3,2.5V7.8h-5.4v18.9c0,7.1,5.1,11.9,10.9,11.9c6.4,0,12-4.9,12-11.6
			C204.1,20.5,198.9,15.5,192.9,15.5z M192.9,33.2c-3.4,0-6.1-2.7-6.1-6.1c0-3.4,2.7-6.1,6.1-6.1c3.4,0,6.1,2.7,6.1,6.1
			C199,30.5,196.2,33.2,192.9,33.2z"/>
		<path class="st6" d="M251.2,26.8c0-6.6-5.6-11.6-12-11.6c-5.7,0-10.9,4.8-10.9,11.9V46h5.4V35.8c1.8,1.8,3.6,2.5,6.3,2.5
			C246.1,38.3,251.2,33.3,251.2,26.8z M246.1,26.7c0,3.4-2.7,6.1-6.1,6.1c-3.4,0-6.1-2.7-6.1-6.1c0-3.4,2.7-6.1,6.1-6.1
			C243.4,20.6,246.1,23.3,246.1,26.7z"/>
		<path class="st5" d="M268.6,14.9V9.5c1.4-0.7,2.4-2.1,2.4-3.7V5.7c0-2.3-1.9-4.2-4.2-4.2h-0.1c-2.3,0-4.2,1.9-4.2,4.2v0.1
			c0,1.7,1,3.1,2.4,3.7v5.4c-2.1,0.3-4,1.2-5.6,2.5L244.6,5.9c0.1-0.4,0.2-0.8,0.2-1.2c0-2.6-2.1-4.7-4.7-4.7
			c-2.6,0-4.7,2.1-4.7,4.7c0,2.6,2.1,4.7,4.7,4.7c0.8,0,1.6-0.2,2.3-0.6l14.6,11.3c-1.2,1.9-2,4.1-2,6.5c0,2.5,0.8,4.9,2.1,6.8
			l-4.4,4.4c-0.4-0.1-0.7-0.2-1.1-0.2c-2.1,0-3.8,1.7-3.8,3.8s1.7,3.8,3.8,3.8c2.1,0,3.8-1.7,3.8-3.8c0-0.4-0.1-0.7-0.2-1.1l4.4-4.4
			c2,1.5,4.5,2.4,7.2,2.4c6.5,0,11.8-5.3,11.8-11.8C278.6,20.7,274.3,15.8,268.6,14.9z M266.8,32.7c-3.4,0-6.1-2.7-6.1-6.1
			c0-3.4,2.7-6.1,6.1-6.1c3.4,0,6.1,2.7,6.1,6.1C272.9,30,270.1,32.7,266.8,32.7z"/>
	</g>
</g>
</svg>
